<svg width="742" height="674" viewBox="0 0 742 674" fill="none" xmlns="http://www.w3.org/2000/svg">
<path opacity="0.1" d="M469.801 219.131C432.88 219.18 397.343 208.716 363.351 197.092C329.359 185.467 295.629 172.45 259.395 166.934C236.092 163.388 209.593 163.714 191.377 176.588C173.843 188.973 168.765 209.472 166.315 228.41C164.473 242.657 163.623 257.609 170.524 270.641C175.315 279.688 183.514 287.145 189.293 295.767C209.464 325.762 197.334 364.078 177.73 394.769C168.538 409.169 157.771 422.971 150.821 438.195C143.872 453.42 141.022 470.684 148.109 485.711C155.133 500.605 170.998 511.415 188.023 518.797C222.598 533.819 262.852 537.039 302.025 538.279C388.738 541.029 475.619 535.419 562.268 529.81C594.334 527.735 626.542 525.647 657.946 519.637C675.381 516.303 693.336 511.355 705.698 500.511C721.39 486.743 724.601 464.264 713.181 448.107C694.032 421.006 643.538 415.895 629.807 386.571C622.235 370.428 628.765 351.915 638.382 336.354C659.008 302.967 694.511 273.061 695.109 235.718C695.519 210.074 677.056 185.057 649.48 173.911C620.576 162.238 581.166 165.24 560.915 186.998C540.091 209.412 502.4 219.096 469.801 219.131Z" fill="#00308F"/>
<path d="M688.386 428.5C688.386 428.5 685.829 419.844 674.805 422.433C674.805 422.433 677.43 430.219 687.654 430.097L688.386 428.5Z" fill="#00308F"/>
<path d="M693.819 419.069C693.819 419.069 691.496 410.312 681.595 412.932C681.595 412.932 684.899 421.251 693.163 420.549L693.819 419.069Z" fill="#00308F"/>
<path d="M697.893 410.787C697.893 410.787 695.912 399.426 685.67 401.941C685.67 401.941 688.646 412.276 697.141 412.443L697.893 410.787Z" fill="#00308F"/>
<path d="M700.61 400.069C700.61 400.069 698.327 389.589 688.386 392.621C688.386 392.621 692.282 402.527 699.904 401.503L700.61 400.069Z" fill="#00308F"/>
<path d="M701.968 389.993C701.968 389.993 698.486 379.571 691.103 379.853C691.103 379.853 694.66 390.86 701.35 392.07L701.968 389.993Z" fill="#00308F"/>
<path d="M703.326 380.609C703.326 380.609 699.65 368.069 693.819 369.035C693.819 369.035 696.363 378.622 703.12 382.564L703.326 380.609Z" fill="#00308F"/>
<path d="M704.684 370.068C704.684 370.068 700.607 358.576 693.819 358.116C693.819 358.116 696.592 369.425 704.549 373.056L704.684 370.068Z" fill="#00308F"/>
<path d="M704.684 358.954C704.684 358.954 700.354 347.511 696.535 347.251C696.535 347.251 698.417 358.521 704.314 360.833L704.684 358.954Z" fill="#00308F"/>
<path d="M706.042 349.089C706.042 349.089 702.698 337.361 697.893 336.386C697.893 336.386 698.549 345.982 705.558 349.968L706.042 349.089Z" fill="#00308F"/>
<path d="M707.4 336.727C707.4 336.727 704.178 327.004 700.61 325.521C700.61 325.521 701.313 336.985 706.578 339.103L707.4 336.727Z" fill="#00308F"/>
<path d="M708.23 327.913L708.759 310.582C708.759 310.582 703.317 323.646 707.837 330.954L708.23 327.913Z" fill="#00308F"/>
<path d="M712.587 310.925C712.587 310.925 717.158 299.023 718.266 298.358C718.266 298.358 709.301 306.081 710.177 316.014L712.587 310.925Z" fill="#00308F"/>
<path d="M683.529 436.889C683.529 436.889 693.217 436.859 692.413 449.051C692.413 449.051 684.278 450.513 681.595 439.194L683.529 436.889Z" fill="#00308F"/>
<path d="M689.082 428.181C689.082 428.181 696.94 423.99 701.968 434.809C701.968 434.809 694.71 438.3 688.386 429.93L689.082 428.181Z" fill="#00308F"/>
<path d="M694.491 418.859C694.491 418.859 702.625 414.163 707.4 425.293C707.4 425.293 698.927 428.753 693.819 420.62L694.491 418.859Z" fill="#00308F"/>
<path d="M696.907 410.376C696.907 410.376 705.009 402.746 711.475 410.462C711.475 410.462 703.198 416.743 696.535 412.076L696.907 410.376Z" fill="#00308F"/>
<path d="M699.546 399.412C699.546 399.412 707.741 391.834 714.191 399.76C714.191 399.76 704.993 405.985 699.251 401.003L699.546 399.412Z" fill="#00308F"/>
<path d="M701.968 389.922C701.968 389.922 708.205 380.83 715.549 382.859C715.549 382.859 709.077 392.486 702.038 392.057L701.968 389.922Z" fill="#00308F"/>
<path d="M703.485 380.532C703.485 380.532 709.684 368.488 715.549 370.585C715.549 370.585 711.078 379.843 703.326 382.563L703.485 380.532Z" fill="#00308F"/>
<path d="M703.975 369.028C703.975 369.028 710.652 359.8 716.907 360.928C716.907 360.928 711.448 370.287 703.326 371.698L703.975 369.028Z" fill="#00308F"/>
<path d="M704.684 358.874C704.684 358.874 709.929 347.33 714.191 347.251C714.191 347.251 711.673 358.712 705.038 360.833L704.684 358.874Z" fill="#00308F"/>
<path d="M704.684 348.984C704.684 348.984 710.887 337.768 715.549 337.745C715.549 337.745 712.376 347.335 704.89 349.968L704.684 348.984Z" fill="#00308F"/>
<path d="M706.042 337.848C706.042 337.848 710.499 327.996 714.191 326.879C714.191 326.879 711.963 338.888 706.534 340.461L706.042 337.848Z" fill="#00308F"/>
<path d="M708.785 328.116L718.266 313.298C718.266 313.298 715.836 327.915 707.4 330.954L708.785 328.116Z" fill="#00308F"/>
<path d="M714.79 312.407C714.79 312.407 726.007 304.989 726.414 303.791C726.414 303.791 720.71 314.179 710.117 316.014L714.79 312.407Z" fill="#00308F"/>
<path d="M715.856 309.223C715.856 309.223 728.595 296.988 731.847 297C731.847 297 721.341 297.479 715.549 308.571L715.856 309.223Z" fill="#00308F"/>
<path d="M706.042 339.043L706.532 339.102C709.06 320.596 712.745 309.644 716.907 308.303L716.746 307.865C712.332 309.298 708.621 320.082 706.042 339.043Z" fill="#444053"/>
<path d="M703.326 383.865L704.022 383.922C704.17 382.175 704.282 380.389 704.358 378.607C705.021 363.124 706.049 348.906 707.4 338.247L707.001 337.745C705.645 348.427 704.326 363.072 703.662 378.578C703.586 380.349 703.474 382.127 703.326 383.865Z" fill="#444053"/>
<path d="M649.375 466.769C649.495 466.718 661.715 461.332 674.398 448.488C681.828 440.966 688.002 432.328 692.69 422.897C698.554 411.112 702.129 396.631 703.326 382.564L702.604 382.898C699.911 414.475 685.345 436.051 673.763 447.803C661.204 460.532 649.12 465.863 649 465.915L649.375 466.769Z" fill="#444053"/>
<path d="M244.859 458.718C249.199 458.718 252.718 455.199 252.718 450.859C252.718 446.519 249.199 443 244.859 443C240.519 443 237 446.519 237 450.859C237 455.199 240.519 458.718 244.859 458.718Z" fill="#FF6584"/>
<path d="M288.057 481.993H285.976V561.084H288.057V481.993Z" fill="#3F3D56"/>
<path d="M287.017 492.399C293.339 492.399 298.464 487.274 298.464 480.952C298.464 474.63 293.339 469.505 287.017 469.505C280.695 469.505 275.57 474.63 275.57 480.952C275.57 487.274 280.695 492.399 287.017 492.399Z" fill="#001338"/>
<path d="M285.976 529.864C285.976 529.864 284.427 494.909 252.675 498.972L285.976 529.864Z" fill="#001338"/>
<path d="M323.449 504.234C323.449 504.234 317.909 538.295 285.79 530.556L323.449 504.234Z" fill="#001338"/>
<path d="M589.132 14.2914C587.722 14.2914 586.343 13.8723 585.17 13.0872C583.997 12.302 583.083 11.186 582.543 9.88026C582.003 8.57455 581.862 7.1378 582.137 5.75166C582.412 4.36553 583.092 3.09228 584.089 2.09294C585.087 1.09359 586.357 0.413024 587.741 0.137305C589.125 -0.138414 590.559 0.0030995 591.862 0.543942C593.165 1.08478 594.279 2.00067 595.063 3.17577C595.847 4.35088 596.265 5.73243 596.265 7.14572C596.263 9.04023 595.511 10.8565 594.173 12.1962C592.836 13.5358 591.023 14.2893 589.132 14.2914ZM589.132 1.19096C587.957 1.19096 586.808 1.5402 585.83 2.19451C584.853 2.84883 584.091 3.77884 583.641 4.86693C583.191 5.95503 583.074 7.15232 583.303 8.30743C583.532 9.46254 584.098 10.5236 584.93 11.3564C585.761 12.1892 586.82 12.7563 587.973 12.9861C589.126 13.2158 590.321 13.0979 591.407 12.6472C592.493 12.1965 593.421 11.4333 594.074 10.454C594.727 9.47476 595.076 8.32346 595.076 7.14572C595.074 5.56697 594.447 4.0534 593.333 2.93706C592.219 1.82072 590.708 1.19276 589.132 1.19096Z" fill="#3F3D56"/>
<path d="M716.214 102.429C730.14 102.429 741.429 91.1398 741.429 77.2143C741.429 63.2888 730.14 52 716.214 52C702.289 52 691 63.2888 691 77.2143C691 91.1398 702.289 102.429 716.214 102.429Z" fill="#004DE6"/>
<path d="M286.282 391.846H173V369H286.282V391.846ZM174.471 390.372H284.811V370.474H174.471V390.372Z" fill="#3F3D56"/>
<path d="M272.306 387.792C276.368 387.792 279.662 384.493 279.662 380.423C279.662 376.352 276.368 373.053 272.306 373.053C268.243 373.053 264.95 376.352 264.95 380.423C264.95 384.493 268.243 387.792 272.306 387.792Z" fill="#004DE6"/>
<path d="M251.709 387.792C255.772 387.792 259.065 384.493 259.065 380.423C259.065 376.352 255.772 373.053 251.709 373.053C247.646 373.053 244.353 376.352 244.353 380.423C244.353 384.493 247.646 387.792 251.709 387.792Z" fill="#004DE6"/>
<path d="M231.112 387.792C235.175 387.792 238.468 384.493 238.468 380.423C238.468 376.352 235.175 373.053 231.112 373.053C227.049 373.053 223.756 376.352 223.756 380.423C223.756 384.493 227.049 387.792 231.112 387.792Z" fill="#004DE6"/>
<path d="M210.515 387.792C214.578 387.792 217.871 384.493 217.871 380.423C217.871 376.352 214.578 373.053 210.515 373.053C206.453 373.053 203.159 376.352 203.159 380.423C203.159 384.493 206.453 387.792 210.515 387.792Z" fill="#004DE6"/>
<path d="M189.919 387.792C193.981 387.792 197.275 384.493 197.275 380.423C197.275 376.352 193.981 373.053 189.919 373.053C185.856 373.053 182.563 376.352 182.563 380.423C182.563 384.493 185.856 387.792 189.919 387.792Z" fill="#004DE6"/>
<path d="M499 128H307V436H499V128Z" fill="#FFE48F"/>
<path d="M447 444L307 436.029V127.971L447 120V444Z" fill="#446FC8"/>
<path d="M435.263 308.466C436.22 308.466 436.996 307.69 436.996 306.733C436.996 305.776 436.22 305 435.263 305C434.306 305 433.53 305.776 433.53 306.733C433.53 307.69 434.306 308.466 435.263 308.466Z" fill="#535461"/>
<path d="M435.263 306.993L436.463 309.072L437.668 311.152H435.263H432.858L434.063 309.072L435.263 306.993Z" fill="#535461"/>
<path d="M453 444L444 443.972L444.355 120H453V444Z" fill="#00308F"/>
<g opacity="0.1">
<path opacity="0.1" d="M453.124 444.389H444.458L444.891 120H453.124V444.389Z" fill="#00308F"/>
</g>
<path opacity="0.1" d="M435.263 298.438C438.374 298.438 440.896 295.916 440.896 292.806C440.896 289.695 438.374 287.173 435.263 287.173C432.152 287.173 429.63 289.695 429.63 292.806C429.63 295.916 432.152 298.438 435.263 298.438Z" fill="black"/>
<path d="M435.263 296.572C438.374 296.572 440.896 294.05 440.896 290.939C440.896 287.828 438.374 285.307 435.263 285.307C432.152 285.307 429.63 287.828 429.63 290.939C429.63 294.05 432.152 296.572 435.263 296.572Z" fill="#535461"/>
<path opacity="0.1" d="M330 128V438" stroke="black" stroke-width="2" stroke-miterlimit="10"/>
<path opacity="0.1" d="M355 126V439" stroke="black" stroke-width="2" stroke-miterlimit="10"/>
<path opacity="0.1" d="M379 124V441" stroke="black" stroke-width="2" stroke-miterlimit="10"/>
<path opacity="0.1" d="M404 123V443" stroke="black" stroke-width="2" stroke-miterlimit="10"/>
<path opacity="0.1" d="M429 121V443" stroke="black" stroke-width="2" stroke-miterlimit="10"/>
<path opacity="0.1" d="M65.5124 505.474C108.991 505.474 144.237 501.9 144.237 497.491C144.237 493.083 108.991 489.509 65.5124 489.509C22.0342 489.509 -13.2119 493.083 -13.2119 497.491C-13.2119 501.9 22.0342 505.474 65.5124 505.474Z" fill="#00308F"/>
<path d="M93.0113 366C93.0113 366 -9.66074 419.043 43.4645 481.609C43.4645 481.609 48.4467 495.372 62.8978 494.216C62.8978 494.216 60.0076 488.959 71.1556 484.775C75.0417 483.245 78.7366 481.268 82.166 478.884C86.8309 475.658 90.3188 471.001 92.1029 465.617C92.1029 465.617 113.105 437.513 96.8373 385.516C96.8373 385.516 98.9293 370.817 97.0851 368.45L84.4782 385.268C84.4782 385.268 97.3879 393.911 98.8468 406.628C98.8468 406.628 85.4141 385.296 82.4963 387.718C81.9183 388.214 76.303 397.077 76.303 397.077C76.303 397.077 98.654 412.244 100.333 431.925C100.333 431.925 87.7262 404.399 74.1284 400.408L66.4486 414.308C66.4486 414.308 90.8917 429.172 93.6443 451.523C93.6443 451.523 79.4684 423.172 64.9897 417.446L59.2644 432.118C59.2644 432.118 82.7991 447.092 84.9736 465.699C84.9736 465.699 65.2925 434.595 58.1908 435.421C58.1908 435.421 53.7591 449.184 54.3372 453.45C54.3372 453.45 70.9904 464.461 71.2932 475.471C71.2932 475.471 55.9337 456.065 53.5665 457.359C53.5665 457.359 52.5756 476.847 57.31 487.004C57.31 487.004 49.2174 472.526 50.5111 457.359C45.7279 461.607 42.3007 467.169 40.6568 473.351C40.6568 473.351 36.2251 462.616 50.8139 452.762C50.8139 452.762 52.1902 437.595 53.8693 435.723C53.8693 435.723 38.0969 443.403 31.4081 452.872C31.4081 452.872 33.8579 438.779 55.2456 431.787L60.7508 416.923C60.7508 416.923 39.3905 425.979 32.8118 433.962C32.8118 433.962 37.5463 419.978 62.4298 413.29L69.8068 399.527C69.8068 399.527 50.8139 405.913 41.5652 413.29C41.5652 413.29 48.7494 401.288 72.0915 395.756L78.0921 387.195C78.0921 387.195 64.3292 392.122 60.4755 393.884C56.6219 395.646 55.8512 394.765 55.8512 394.765C62.909 388.803 71.487 384.924 80.6246 383.562C80.6246 383.562 93.9747 366.798 93.0113 366Z" fill="#00308F"/>
<path opacity="0.1" d="M106.434 510.278C127.109 510.278 143.869 508.581 143.869 506.487C143.869 504.393 127.109 502.696 106.434 502.696C85.76 502.696 69 504.393 69 506.487C69 508.581 85.76 510.278 106.434 510.278Z" fill="#00308F"/>
<path d="M119.584 444C119.584 444 70.776 469.207 95.9828 498.922C96.6935 500.768 97.9699 502.342 99.6294 503.419C101.289 504.495 103.246 505.02 105.222 504.916C105.222 504.916 103.856 502.423 109.098 500.425C110.952 499.692 112.716 498.753 114.358 497.624C116.577 496.085 118.237 493.868 119.089 491.305C119.089 491.305 129.062 477.951 121.326 453.239C121.326 453.239 122.334 446.237 121.446 445.11L115.52 453.256C115.52 453.256 121.651 457.372 122.351 463.4C122.351 463.4 115.964 453.273 114.58 454.417C114.307 454.656 111.643 458.875 111.643 458.875C111.643 458.875 122.265 466.081 123.068 475.44C123.068 475.44 117.074 462.324 110.601 460.463L106.964 467.055C106.964 467.055 118.56 474.125 119.875 484.747C119.875 484.747 113.129 471.273 106.212 468.558L103.497 475.526C103.497 475.526 114.7 482.647 115.725 491.493C115.725 491.493 106.366 476.704 102.985 477.165C102.985 477.165 100.884 483.723 101.157 485.704C101.157 485.704 109.081 490.998 109.218 496.19C109.218 496.19 101.909 486.968 100.782 487.651C100.782 487.651 100.321 496.907 102.575 501.74C100.286 497.406 99.1671 492.549 99.33 487.651C97.0735 489.655 95.4479 492.271 94.6507 495.182C94.6507 495.182 92.5501 490.059 99.4837 485.396C99.4837 485.396 100.133 478.19 100.935 477.302C100.935 477.302 93.4382 480.956 90.2617 485.448C90.2617 485.448 91.423 478.753 101.584 475.423L104.163 468.353C104.163 468.353 94.0017 472.656 90.8594 476.465C90.8594 476.465 93.1137 469.804 104.949 466.628L108.467 460.121C108.467 460.121 99.4325 463.161 95.0264 466.628C95.0264 466.628 98.442 460.907 109.543 458.294L112.394 454.212C112.394 454.212 105.854 456.552 104.026 457.406C102.199 458.26 101.823 457.816 101.823 457.816C105.172 454.988 109.239 453.143 113.573 452.488C113.573 452.488 119.96 444.342 119.584 444Z" fill="#00308F"/>
<circle cx="-6" cy="275" r="24.5" stroke="#504E49"/>
<rect x="124.707" y="37.4351" width="18" height="18" transform="rotate(-45 124.707 37.4351)" stroke="#5D5A55"/>
<rect x="499.707" y="655.153" width="24.6716" height="24.6716" transform="rotate(-45 499.707 655.153)" stroke="#5D5A55"/>
<rect x="596.5" y="147.5" width="27" height="27" stroke="#5D5A55"/>
</svg>
